<?xml version="1.0" standalone="no"?><!DOCTYPE svg PUBLIC "-//W3C//DTD SVG 1.1//EN" "http://www.w3.org/Graphics/SVG/1.1/DTD/svg11.dtd"><svg t="1662246390117" class="icon" viewBox="0 0 1024 1024" version="1.1" xmlns="http://www.w3.org/2000/svg" p-id="21356" xmlns:xlink="http://www.w3.org/1999/xlink" width="200" height="200"><path d="M512 768l256 0 0-128L512 640 512 768zM512 576l256 0L768 448 512 448 512 576zM512 384l256 0L768 256 512 256 512 384zM896 0 256 0C185.28 0 128 57.28 128 128L64 128C28.672 128 0 156.672 0 192l0 704c0 70.72 57.28 128 128 128l768 0c70.72 0 128-57.28 128-128L1024 128C1024 57.28 966.72 0 896 0zM256 832c0 35.328-28.672 64-64 64s-64-28.672-64-64L128 320c0-35.328 28.672-64 64-64s64 28.672 64 64L256 832zM896 832c0 35.328-28.672 64-64 64L448 896c-35.328 0-64-28.672-64-64L384 192c0-35.328 28.672-64 64-64l384 0c35.328 0 64 28.672 64 64L896 832z" p-id="21357" data-spm-anchor-id="a313x.7781069.0.i19" class="selected"></path></svg>