<?xml version="1.0" standalone="no"?><!DOCTYPE svg PUBLIC "-//W3C//DTD SVG 1.1//EN" "http://www.w3.org/Graphics/SVG/1.1/DTD/svg11.dtd"><svg t="1662246141148" class="icon" viewBox="0 0 1024 1024" version="1.1" xmlns="http://www.w3.org/2000/svg" p-id="12348" id="mx_n_1662246141148" data-spm-anchor-id="a313x.7781069.0.i10" xmlns:xlink="http://www.w3.org/1999/xlink" width="200" height="200"><path d="M297.216 368.0256h-133.632c-30.976 0-56.064 25.088-56.064 56.064v441.4464C107.52 896.512 132.608 921.6 163.584 921.6h133.5808c31.0272 0 56.1152-25.088 56.1152-56.064V424.0896c0-30.976-25.088-56.064-56.064-56.064zM578.6624 102.4H445.3376C414.2592 102.4 389.12 127.5392 389.12 158.6176v706.816c0 31.0272 25.1392 56.1664 56.2176 56.1664h133.376c31.0272 0 56.2176-25.1392 56.2176-56.2176V158.6176A56.2688 56.2688 0 0 0 578.6624 102.4zM860.416 518.4h-133.5808c-30.976 0-56.064 25.088-56.064 56.064v291.0208A55.9616 55.9616 0 0 0 726.784 921.6h133.5808c30.976 0 56.064-25.088 56.064-56.064V574.464a55.9616 55.9616 0 0 0-56.0128-56.064z" p-id="12349" data-spm-anchor-id="a313x.7781069.0.i9" class=""></path></svg>